<?xml version="1.0" encoding="UTF-8"?> <svg xmlns="http://www.w3.org/2000/svg" xmlns:xlink="http://www.w3.org/1999/xlink" width="800px" height="90px" viewBox="0 0 800 90" version="1.1"><!-- Generator: Sketch 64 (93537) - https://sketch.com --><title>treeline_title_card</title><desc>Created with Sketch.</desc><defs><polygon id="path-1" points="0 0.565884692 40.0966998 0.565884692 40.0966998 74.751173 0 74.751173"></polygon><polygon id="path-3" points="1.32930417 1.32978131 51.6004771 1.32978131 51.6004771 62.027833 1.32930417 62.027833"></polygon><polygon id="path-5" points="0.499880716 1.32978131 50.7726441 1.32978131 50.7726441 62.027833 0.499880716 62.027833"></polygon><polygon id="path-7" points="0 89.0233002 799.853678 89.0233002 799.853678 0.000636182903 0 0.000636182903"></polygon></defs><g id="Page-1" stroke="none" stroke-width="1" fill="none" fill-rule="evenodd"><g id="Artboard" transform="translate(0.000000, -155.000000)"><g id="treeline_title_card" transform="translate(0.000000, 155.000000)"><g id="Group-3" transform="translate(0.000000, 14.271809)"><mask id="mask-2" fill="white"><use xlink:href="#path-1"></use></mask><g id="Clip-2"></g><path d="M-0.000318091451,23.2505765 L7.35713718,15.5257256 L9.81121272,15.5257256 L9.81121272,3.75316103 L24.646998,0.565884692 L24.646998,15.5257256 L40.0966998,15.5257256 L32.3718489,23.2505765 L24.646998,23.2505765 L24.646998,52.925328 C24.646998,54.5619085 24.667674,56.0124056 24.7090258,57.2784095 C24.7487873,58.546004 24.9539563,59.6084294 25.3213519,60.4672763 C25.690338,61.3245328 26.2422266,61.9988867 26.9770179,62.490338 C27.7133996,62.9801988 28.775825,63.2251292 30.1658847,63.2251292 C31.3094235,63.2251292 32.3925249,63.0835785 33.4167793,62.7957058 C34.4362624,62.5126044 35.5193638,62.1658847 36.6660835,61.7539563 L38.3805964,64.4513718 L24.646998,72.5436183 C23.5002783,73.2004771 22.35833,73.7285089 21.2147913,74.1404374 C20.069662,74.546004 18.9229423,74.751173 17.780994,74.751173 C16.0648907,74.751173 14.6334791,74.4442147 13.4899404,73.8318887 C12.3448111,73.2179722 11.4462028,72.3829821 10.7925249,71.3173757 C10.1372565,70.2581312 9.68874751,69.0096223 9.4438171,67.5782107 C9.19888668,66.1483897 9.07483101,64.6565408 9.07483101,63.102664 L9.07483101,60.1603181 L9.81121272,23.2505765 L-0.000318091451,23.2505765 Z" id="Fill-1" fill="#FEFEFE" mask="url(#mask-2)"></path></g><path d="M109.991252,56.6512922 L109.991252,43.2246521 C109.991252,39.9149105 109.967396,37.3399602 109.927634,35.4982107 C109.887873,33.6596421 109.824254,32.3713718 109.743141,31.6365805 C109.662028,30.9017893 109.579324,30.2894632 109.498211,29.7964215 L124.949503,29.7964215 L124.949503,39.4854871 C126.665606,36.8691849 128.03499,34.8238569 129.057654,33.3542744 C130.078728,31.8831014 130.896223,30.7777336 131.510139,30.0413519 C132.122465,29.3081511 132.633002,28.8596421 133.04175,28.6926441 C133.450497,28.532008 133.900596,28.4477137 134.390457,28.4477137 C135.864811,28.4477137 137.415507,29.1427435 139.050497,30.5343936 C140.685487,31.9244533 142.687873,33.8870775 145.060835,36.417495 L134.514513,48.0675944 C133.533201,46.5964215 132.615507,45.554672 131.75507,44.9407555 C130.896223,44.3284294 129.771769,43.8178926 128.3833,43.4091451 C127.565805,44.5542744 126.931213,45.5355865 126.482704,46.3514911 C126.032604,47.1689861 125.70338,48.3141153 125.501392,49.7852883 C125.296223,51.2564612 125.173757,53.2795229 125.133996,55.8544732 C125.092644,58.4294235 125.071968,62.0079523 125.071968,66.5852883 C125.071968,69.0377734 125.092644,71.4902584 125.133996,73.9395626 C125.173757,76.3936382 125.194433,78.8461233 125.194433,81.2986083 C125.194433,82.3626243 125.173757,83.4043738 125.133996,84.4254473 C125.092644,85.4481113 125.071968,86.4898608 125.071968,87.5522863 L109.498211,87.5522863 C109.579324,86 109.662028,83.9960239 109.743141,81.5419483 C109.824254,79.0894632 109.887873,76.455666 109.927634,73.6357853 C109.967396,70.8159046 109.991252,67.933996 109.991252,64.9916501 L109.991252,56.6512922 Z" id="Fill-4" fill="#FEFEFE"></path><g id="Group-8" transform="translate(206.759443, 26.995467)"><mask id="mask-4" fill="white"><use xlink:href="#path-3"></use></mask><g id="Clip-7"></g><path d="M35.7833797,24.7508549 C35.7833797,22.3810736 35.3953082,20.337336 34.6207555,18.6212326 C33.8414314,16.9019483 32.8601193,15.4737177 31.6768191,14.3285885 C30.490338,13.1850497 29.1813917,12.3468787 27.7515706,11.815666 C26.3217495,11.2844533 24.9523658,11.0188469 23.6450099,11.0188469 C22.7448111,11.0188469 21.9050497,11.0999602 21.130497,11.2637773 C20.3543539,11.4275944 19.5543539,11.5914115 18.7400398,11.7536382 C18.2501789,12.7349503 17.8207555,13.6749105 17.4533598,14.5735189 C17.0843738,15.4737177 16.775825,16.393002 16.5324851,17.3329622 C16.2875547,18.2729225 16.0601193,19.3369384 15.8581312,20.5186481 C15.6545527,21.7067197 15.4700596,23.1174553 15.3062425,24.7508549 L35.7833797,24.7508549 Z M36.2764215,32.9687475 L15.5527634,32.9687475 C15.7976938,34.43833 16.2446123,36.1369384 16.9014712,38.0550298 C17.5551491,39.9763022 18.6350696,41.7941948 20.1507753,43.5118887 C21.6617097,45.227992 23.7054473,46.699165 26.2803976,47.9254076 C28.8553479,49.1516501 32.1857654,49.7671571 36.2764215,49.7671571 C37.746004,49.7671571 38.9722465,49.7464811 39.9519682,49.7035388 C40.9332803,49.6653678 41.8732406,49.5635785 42.7750298,49.398171 C43.6720477,49.2359443 44.6931213,48.9910139 45.839841,48.6633797 C46.9833797,48.337336 48.4943141,47.8458847 50.3774155,47.1922068 L51.4796024,49.5190457 C48.8617097,51.2542346 46.3710537,52.9671571 44.0012724,54.6594036 C41.6283101,56.354831 39.4207555,57.9421074 37.3770179,59.426004 C36.4784095,60.0876342 35.7420278,60.5822664 35.1710537,60.9162624 C34.5984891,61.2407157 34.0672763,61.492008 33.579006,61.655825 C33.0859642,61.8228231 32.5547515,61.9246123 31.9821869,61.9675547 C31.4096223,62.0073161 30.6334791,62.027992 29.652167,62.027992 C26.9547515,62.027992 23.9710537,61.6399205 20.702664,60.8621869 C17.429503,60.0828628 14.3662823,58.6498608 11.5034592,56.5615905 C8.64222664,54.4733201 6.23109344,51.6677535 4.2716501,48.1448907 C2.30743539,44.6252087 1.32930417,40.076501 1.32930417,34.5067197 C1.32930417,32.5409145 1.55355865,30.288827 2.00365805,27.7472763 C2.45057654,25.2089066 3.04540755,22.772326 3.77860835,20.4359443 C4.51499006,18.1027435 5.37542744,16.0144732 6.35355865,14.1711332 C7.33487078,12.3277932 8.39729622,11.1206362 9.54242545,10.5464811 C13.7126044,8.33415507 17.0032604,6.61646123 19.4143936,5.38385686 C21.8255268,4.15761431 23.7674751,3.23673956 25.2386481,2.61805169 C26.7098211,2.0073161 27.9980915,1.63673956 29.1018688,1.51586481 C30.2040557,1.39180915 31.5734394,1.32978131 33.2084294,1.32978131 C36.6438171,1.32978131 39.5432207,1.98664016 41.9145924,3.29399602 C44.2843738,4.60135189 46.1865606,6.23475149 47.6179722,8.19578529 C49.0462028,10.16 50.0704573,12.2657654 50.6827833,14.5130815 C51.2966998,16.7619881 51.6004771,18.7850497 51.6004771,20.5822664 L51.6004771,21.9309742 C51.6004771,22.3413121 51.5591252,22.7484692 51.4796024,23.1572167 L36.2764215,32.9687475 Z" id="Fill-6" fill="#FEFEFE" mask="url(#mask-4)"></path></g><g id="Group-11" transform="translate(327.634195, 26.995467)"><mask id="mask-6" fill="white"><use xlink:href="#path-5"></use></mask><g id="Clip-10"></g><path d="M34.9555467,24.7508549 C34.9555467,22.3810736 34.5674751,20.337336 33.791332,18.6212326 C33.0135984,16.9019483 32.0322863,15.4737177 30.8489861,14.3285885 C29.662505,13.1850497 28.3519682,12.3468787 26.9237376,11.815666 C25.4939165,11.2844533 24.1229423,11.0188469 22.8171769,11.0188469 C21.9153877,11.0188469 21.0772167,11.0999602 20.302664,11.2637773 C19.5265209,11.4275944 18.7265209,11.5914115 17.9122068,11.7536382 C17.4223459,12.7349503 16.9929225,13.6749105 16.6255268,14.5735189 C16.2549503,15.4737177 15.947992,16.393002 15.7046521,17.3329622 C15.4597217,18.2729225 15.2322863,19.3369384 15.0287078,20.5186481 C14.8267197,21.7067197 14.6422266,23.1174553 14.4784095,24.7508549 L34.9555467,24.7508549 Z M35.4485885,32.9687475 L14.7249304,32.9687475 C14.9698608,34.43833 15.4167793,36.1369384 16.0736382,38.0550298 C16.7273161,39.9763022 17.8072366,41.7941948 19.3229423,43.5118887 C20.8338767,45.227992 22.8760239,46.699165 25.4509742,47.9254076 C28.0275149,49.1516501 31.3563419,49.7671571 35.4485885,49.7671571 C36.918171,49.7671571 38.1444135,49.7464811 39.1241352,49.7035388 C40.1054473,49.6653678 41.0454076,49.5635785 41.9471968,49.398171 C42.8442147,49.2359443 43.8652883,48.9910139 45.0104175,48.6633797 C46.1539563,48.337336 47.6664811,47.8458847 49.5495825,47.1922068 L50.6501789,49.5190457 C48.0338767,51.2542346 45.5416302,52.9671571 43.1734394,54.6594036 C40.8004771,56.354831 38.5929225,57.9421074 36.5491849,59.426004 C35.6505765,60.0876342 34.9141948,60.5822664 34.3432207,60.9162624 C33.7706561,61.2407157 33.2394433,61.492008 32.7495825,61.655825 C32.2581312,61.8228231 31.7269185,61.9246123 31.1543539,61.9675547 C30.5817893,62.0073161 29.8056461,62.027992 28.824334,62.027992 C26.1269185,62.027992 23.1416302,61.6399205 19.874831,60.8621869 C16.60167,60.0828628 13.5368588,58.6498608 10.6756262,56.5615905 C7.81439364,54.4733201 5.40326044,51.6677535 3.4438171,48.1448907 C1.47960239,44.6252087 0.499880716,40.076501 0.499880716,34.5067197 C0.499880716,32.5409145 0.724135189,30.288827 1.17423459,27.7472763 C1.62274354,25.2089066 2.2159841,22.772326 2.95077535,20.4359443 C3.68715706,18.1027435 4.54600398,16.0144732 5.52572565,14.1711332 C6.50703777,12.3277932 7.56946322,11.1206362 8.71459245,10.5464811 C12.8847714,8.33415507 16.1754274,6.61646123 18.5865606,5.38385686 C20.9976938,4.15761431 22.9396421,3.23673956 24.4108151,2.61805169 C25.8819881,2.0073161 27.1702584,1.63673956 28.2740358,1.51586481 C29.3762227,1.39180915 30.7456064,1.32978131 32.3805964,1.32978131 C35.8143936,1.32978131 38.7153877,1.98664016 41.0867594,3.29399602 C43.4565408,4.60135189 45.3571372,6.23475149 46.7885487,8.19578529 C48.2183698,10.16 49.2410338,12.2657654 49.8533598,14.5130815 C50.4672763,16.7619881 50.7726441,18.7850497 50.7726441,20.5822664 L50.7726441,21.9309742 C50.7726441,22.3413121 50.7312922,22.7484692 50.6501789,23.1572167 L35.4485885,32.9687475 Z" id="Fill-9" fill="#FEFEFE" mask="url(#mask-6)"></path></g><mask id="mask-8" fill="white"><use xlink:href="#path-7"></use></mask><g id="Clip-13"></g><polygon id="Fill-12" fill="#FEFEFE" mask="url(#mask-8)" points="449.894235 87.5505368 464.607555 87.5505368 464.607555 -0.000954274354 449.894235 -0.000954274354"></polygon><path d="M538.183698,87.5505368 L553.141948,87.5505368 L553.141948,29.7962624 L538.183698,29.7962624 L538.183698,87.5505368 Z M546.64334,19.373996 C544.682306,18.4753877 542.740358,17.5576938 540.819085,16.6161431 C538.896223,15.6761829 536.995626,14.6360239 535.115706,13.4893042 C536.752286,11.690497 538.36501,9.91395626 539.961829,8.15491054 C541.555467,6.39745527 543.1666,4.61932406 544.804771,2.81892644 C546.765805,3.80182903 548.687078,4.78314115 550.566998,5.76445328 C552.446918,6.74417495 554.368191,7.76683897 556.330815,8.82926441 C554.692644,10.5453678 553.081511,12.2837376 551.487873,14.0427833 C549.892644,15.8002386 548.27833,17.5783698 546.64334,19.373996 L546.64334,19.373996 Z" id="Fill-14" fill="#FEFEFE" mask="url(#mask-8)"></path><path d="M629.04493,87.5518091 L629.04493,29.7975348 L643.75825,29.7975348 L643.75825,37.8913718 L652.588469,31.6376938 C653.650895,30.9013121 654.466799,30.330338 655.040954,29.92 C655.610338,29.5128429 656.100199,29.2058847 656.512127,29.0007157 C656.920875,28.7971372 657.28827,28.653996 657.615905,28.5712922 C657.940358,28.4901789 658.430219,28.4472366 659.087078,28.4472366 C660.31332,28.4472366 661.641352,28.6110537 663.072763,28.9402783 C664.499404,29.2663221 665.871968,29.6734791 667.179324,30.1665209 C668.48668,30.6563817 669.673161,31.2082704 670.735586,31.819006 C671.798012,32.4345129 672.615507,33.0675149 673.188072,33.7211928 C674.08668,34.9474354 674.800795,35.9907753 675.333598,36.8480318 C675.864811,37.7068787 676.252883,38.646839 676.497813,39.6679125 C676.745924,40.6905765 676.906561,41.8961431 676.990855,43.2862028 C677.070378,44.6762624 677.11173,46.4734791 677.11173,48.6810338 L677.11173,87.5518091 L661.906958,87.5518091 L661.906958,54.19833 C661.906958,52.56334 661.884692,51.2989264 661.846521,50.3971372 C661.801988,49.4985288 661.720875,48.7414712 661.6,48.1291451 C661.477535,47.5152286 661.273956,46.9871968 660.987674,46.535507 C660.701392,46.0885885 660.271968,45.492167 659.697813,44.7573757 C659.126839,43.9398807 658.064414,43.1430616 656.512127,42.365328 C654.95666,41.5891849 653.119682,41.2011133 650.994831,41.2011133 C650.093042,41.2011133 649.420278,41.2424652 648.971769,41.3235785 C648.52167,41.4062823 647.518091,41.5685089 645.967396,41.8150298 C645.555467,42.960159 645.250099,43.9398807 645.048111,44.7573757 C644.841352,45.5748708 644.677535,46.4941551 644.55507,47.5152286 C644.432604,48.5378926 644.349901,49.7434592 644.310139,51.1351093 C644.268787,52.525169 644.248111,54.3621471 644.248111,56.6508151 C644.248111,60.0846123 644.227435,63.3959443 644.187674,66.5848111 C644.146322,69.7720875 644.125646,72.7366998 644.125646,75.4738767 L644.125646,82.7088668 C644.125646,84.7923658 644.166998,86.4098608 644.248111,87.5518091 L629.04493,87.5518091 Z" id="Fill-15" fill="#FEFEFE" mask="url(#mask-8)"></path><path d="M784.035944,51.7463221 C784.035944,49.3765408 783.647873,47.3328032 782.87173,45.6166998 C782.093996,43.8974155 781.112684,42.4691849 779.929384,41.3240557 C778.742903,40.1805169 777.432366,39.3423459 776.004135,38.8111332 C774.574314,38.2799205 773.20493,38.0143141 771.897575,38.0143141 C770.995785,38.0143141 770.157614,38.0954274 769.383062,38.2592445 C768.606918,38.4230616 767.806918,38.5868787 766.992604,38.7491054 C766.502744,39.7304175 766.07332,40.6703777 765.705924,41.5689861 C765.336938,42.4691849 765.02839,43.3884692 764.78505,44.3284294 C764.540119,45.2683897 764.312684,46.3324056 764.109105,47.5141153 C763.907117,48.7021869 763.722624,50.1129225 763.558807,51.7463221 L784.035944,51.7463221 Z M784.528986,59.9642147 L763.805328,59.9642147 C764.050258,61.4337972 764.497177,63.1324056 765.154036,65.050497 C765.807714,66.9717694 766.887634,68.789662 768.40334,70.5073559 C769.914274,72.2234592 771.958012,73.6946322 774.531372,74.9208748 C777.107913,76.1471173 780.43674,76.7626243 784.528986,76.7626243 C785.998569,76.7626243 787.224811,76.7419483 788.204533,76.699006 C789.185845,76.660835 790.125805,76.5590457 791.027594,76.3936382 C791.924612,76.2314115 792.945686,75.9864811 794.090815,75.6588469 C795.234354,75.3328032 796.746879,74.8413519 798.62998,74.187674 L799.730577,76.5145129 C797.114274,78.2497018 794.622028,79.9626243 792.253837,81.6548708 C789.880875,83.3502982 787.67332,84.9375746 785.629583,86.4214712 C784.730974,87.0831014 783.994592,87.5777336 783.423618,87.9117296 C782.851054,88.2361829 782.319841,88.4874751 781.82998,88.6512922 C781.338529,88.8182903 780.807316,88.9200795 780.234751,88.9630219 C779.662187,89.0027833 778.886044,89.0234592 777.904732,89.0234592 C775.207316,89.0234592 772.223618,88.6353877 768.955229,87.8576541 C765.682068,87.07833 762.617256,85.645328 759.756024,83.5570577 C756.894791,81.4687873 754.483658,78.6632207 752.524215,75.1403579 C750.56,71.6206759 749.580278,67.0719682 749.580278,61.5021869 C749.580278,59.5363817 749.804533,57.2842942 750.254632,54.7427435 C750.703141,52.2043738 751.297972,49.7677932 752.031173,47.4314115 C752.767555,45.0982107 753.626402,43.0099404 754.606123,41.1666004 C755.587435,39.3232604 756.649861,38.1161034 757.79499,37.5419483 C761.965169,35.3296223 765.255825,33.6119284 767.666958,32.3793241 C770.078091,31.1530815 772.02004,30.2322068 773.491213,29.6135189 C774.962386,29.0027833 776.250656,28.6322068 777.354433,28.511332 C778.45662,28.3872763 779.826004,28.3252485 781.460994,28.3252485 C784.894791,28.3252485 787.795785,28.9821074 790.167157,30.2894632 C792.536938,31.5968191 794.437535,33.2302187 795.868946,35.1912525 C797.298767,37.1554672 798.321431,39.2612326 798.933757,41.5085487 C799.549264,43.7574553 799.853042,45.7805169 799.853042,47.5777336 L799.853042,48.9264414 C799.853042,49.3367793 799.81169,49.7439364 799.730577,50.1526839 L784.528986,59.9642147 Z" id="Fill-16" fill="#FEFEFE" mask="url(#mask-8)"></path></g></g></g></svg> 